<?xml version="1.0" encoding="UTF-8"?>
<svg width="40px" height="100px" viewBox="0 0 40 100" version="1.1" xmlns="http://www.w3.org/2000/svg">
    <title>Coca-Cola Bottle</title>
    <g stroke="none" stroke-width="1" fill="none" fill-rule="evenodd">
        <!-- Bottle Cap -->
        <path d="M10,0 L30,0 C35.5228475,0 40,4.4771525 40,10 L40,10 L0,10 L0,10 C0,4.4771525 4.4771525,0 10,0 Z" fill="#E61A27"></path>
        
        <!-- Bottle Neck -->
        <rect fill="#E61A27" x="10" y="10" width="20" height="15"></rect>
        
        <!-- Bottle Body -->
        <path d="M5,25 L35,25 C37.7614237,25 40,27.2385763 40,30 L40,85 C40,93.2842712 33.2842712,100 25,100 L15,100 C6.71572875,100 0,93.2842712 0,85 L0,30 C0,27.2385763 2.23857625,25 5,25 Z" fill="#E61A27"></path>
        
        <!-- Bottle Shine -->
        <path d="M5,25 L20,25 L20,100 L15,100 C6.71572875,100 0,93.2842712 0,85 L0,30 C0,27.2385763 2.23857625,25 5,25 Z" fill-opacity="0.3" fill="#FFFFFF"></path>
        
        <!-- Bottle Label -->
        <rect fill="#FFFFFF" x="5" y="45" width="30" height="20" rx="2"></rect>
    </g>
</svg>